<svg xmlns="http://www.w3.org/2000/svg" height="1200" width="1600" version="1.1" xmlns:xlink="http://www.w3.org/1999/xlink" xmlns:svgjs="http://svgjs.com/svgjs"><rect fill="#f3ebe9" width="1600" height="1200"></rect><g><path d="M1005.65 301.05H1384.95C1402.25 301.05 1416.25 315.05 1416.25 332.35V892.75C1416.25 910.05 1402.25 924.05 1384.95 924.05H1005.65C988.35 924.05 974.35 910.05 974.35 892.75V332.35C974.35 315.05 988.35 301.05 1005.65 301.05Z" fill="#ffc930" opacity="1" stroke-width="4" stroke="none"></path><path d="M1151.15 301.05V924.05" stroke="#24221c" stroke-width="4" stroke-linecap="round" stroke-linejoin="round" opacity="1" fill="none"></path><path d="M1062.75 301.05V924.05" stroke="#24221c" stroke-width="4" stroke-linecap="round" stroke-linejoin="round" opacity="1" fill="none"></path><path d="M1239.45 301.05V924.05" stroke="#24221c" stroke-width="4" stroke-linecap="round" stroke-linejoin="round" opacity="1" fill="none"></path><path d="M1327.85 301.05V924.05" stroke="#24221c" stroke-width="4" stroke-linecap="round" stroke-linejoin="round" opacity="1" fill="none"></path><path d="M974.35 746.25H1416.25" stroke="#24221c" stroke-width="4" stroke-linecap="round" stroke-linejoin="round" opacity="1" fill="none"></path><path d="M974.35 835.25L1416.25 835.65" stroke="#24221c" stroke-width="4" stroke-linecap="round" stroke-linejoin="round" opacity="1" fill="none"></path><path d="M974.35 567.95L1416.25 568.15" stroke="#24221c" stroke-width="4" stroke-linecap="round" stroke-linejoin="round" opacity="1" fill="none"></path><path d="M974.65 657.25H1416.25" stroke="#24221c" stroke-width="4" stroke-linecap="round" stroke-linejoin="round" opacity="1" fill="none"></path><path d="M974.35 479.05L1416.25 479.15" stroke="#24221c" stroke-width="4" stroke-linecap="round" stroke-linejoin="round" opacity="1" fill="none"></path><path d="M974.35 390.05H1416.25" stroke="#24221c" stroke-width="4" stroke-linecap="round" stroke-linejoin="round" opacity="1" fill="none"></path></g><g><path d="M957.13 195.66H1279.43C1296.73 195.66 1310.73 209.66 1310.73 226.96V787.36C1310.73 804.66 1296.73 818.66 1279.43 818.66H957.13C939.83 818.66 925.83 804.66 925.83 787.36V226.96C925.83 209.66 939.93 195.66 957.13 195.66Z" fill="#ff4f32" opacity="1" stroke-width="4" stroke="none"></path><path d="M1123.43 184.26L1147.33 145.66H1213.53C1230.83 145.66 1244.83 159.66 1244.83 176.96V282.66L1217.43 317.66 1123.53 291.06 1123.43 184.26Z" fill="#231f20" opacity="1" stroke-width="4" stroke="none"></path><path d="M1154.43 174.36V262.86L1102.73 634.26 920.93 602.66 888.13 400.66 879.33 195.66 974.93 171.96 1154.43 174.36Z" fill="#ffa0dc" opacity="1" stroke-width="4" stroke="none"></path><path d="M879.33 463.06L859.93 507.16V737.36C859.93 754.66 873.93 768.66 891.23 768.66H920.93L988.73 743.66 981.93 424.66 879.33 463.06Z" fill="#ff4f32" opacity="1" stroke-width="4" stroke="none"></path><path d="M891.23 145.66C873.93 145.66 859.93 159.66 859.93 176.96V507.16C886.93 470.66 960.93 496.66 979.93 435.66 1001.23 367.26 849.73 300.26 897.93 233.66 939.93 175.66 1045.93 234.66 1111.93 217.66 1177.93 200.66 1147.33 145.66 1147.33 145.66H891.23Z" fill="#ffffff" opacity="1" stroke-width="4" stroke="none"></path><path d="M954.13 611.16V760.46H1039.93L972.03 615.66 954.13 611.16Z" fill="#61ccff" opacity="1" stroke-width="4" stroke="none"></path><path d="M1024.93 311.66V602.66H1187.63V423.66L1024.93 311.66Z" fill="#61ccff" opacity="1" stroke-width="4" stroke="none"></path><path d="M920.93 768.66H1213.63C1230.93 768.66 1244.93 754.66 1244.93 737.36L1244.83 282.76C1244.83 282.76 1062.93 227.66 1031.93 284.66 984.63 371.66 1189.53 470.36 1155.93 542.66 1129.93 598.66 985.83 541.06 958.93 592.66 934.93 638.66 1009.73 689.86 1002.93 721.66 996.93 749.66 930.93 737.66 920.93 768.66Z" fill="#ffffff" opacity="1" stroke-width="4" stroke="none"></path><path d="M1093.93 448.66C1107.18 448.66 1117.93 437.91 1117.93 424.66 1117.93 411.41 1107.18 400.66 1093.93 400.66 1080.68 400.66 1069.93 411.41 1069.93 424.66 1069.93 437.91 1080.68 448.66 1093.93 448.66Z" fill="#231f20" opacity="1" stroke-width="4" stroke="none"></path></g><g><path d="M482 968H625.4L649.4 940.8H884.2L795 968 858.4 1020.3 795.5 1067H482V968Z" fill="#cecece" opacity="1" stroke-width="4" stroke="none"></path><path d="M794.9 950.6L908.2 954.7V1067H795.5L794.9 950.6Z" fill="#231f20" opacity="1" stroke-width="4" stroke="none"></path><path d="M625.4 869H768.8L798.3 835.2 1015.4 832.7 938.9 869 995.3 927.2 938.9 968H625.4V869Z" fill="#cecece" opacity="1" stroke-width="4" stroke="none"></path><path d="M938.9 855.9L1051.7 853.9 1051.6 968H938.9V855.9Z" fill="#231f20" opacity="1" stroke-width="4" stroke="none"></path><path d="M768.8 770H1082.3L1161.7 818 1082.3 869H1035.6 1022 783.2 768.8V770Z" fill="#cecece" opacity="1" stroke-width="4" stroke="none"></path><path d="M1195 770H1082.3V869H1195V770Z" fill="#231f20" opacity="1" stroke-width="4" stroke="none"></path><path d="M908 968H625.4" stroke="#5c5c5c" stroke-width="4" stroke-linecap="round" stroke-linejoin="round" opacity="1" fill="none"></path><path d="M1052 869H768.4" stroke="#5c5c5c" stroke-width="4" stroke-linecap="round" stroke-linejoin="round" opacity="1" fill="none"></path><path d="M1195 770H860" stroke="#5c5c5c" stroke-width="4" stroke-linecap="round" stroke-linejoin="round" opacity="1" fill="none"></path></g><g><path d="M1462.4 878.4L1453 887.8C1437.6 903.2 1416.5 896.1 1401.1 891 1388.9 886.9 1380 884.3 1376.5 887.8 1373 891.3 1375.6 900.2 1379.7 912.4 1384.8 927.8 1391.9 948.9 1376.5 964.3 1361.1 979.7 1340 972.6 1324.6 967.5 1312.4 963.4 1303.5 960.8 1300 964.3 1296.5 967.8 1299.1 976.7 1303.2 988.9 1308.3 1004.3 1315.4 1025.4 1300 1040.8 1284.6 1056.2 1263.5 1049.1 1248.1 1044 1235.9 1039.9 1227 1037.3 1223.5 1040.8L1214.1 1050.2 1195.3 1031.4 1204.7 1022C1220.1 1006.6 1241.2 1013.7 1256.6 1018.8 1268.8 1022.9 1277.7 1025.5 1281.2 1022 1284.7 1018.5 1282.1 1009.6 1278 997.4 1272.9 982 1265.8 960.9 1281.2 945.5 1296.6 930.1 1317.7 937.2 1333.1 942.3 1345.3 946.4 1354.2 949 1357.7 945.5 1361.2 942 1358.6 933.1 1354.5 920.9 1349.4 905.5 1342.3 884.4 1357.7 869 1373.1 853.6 1394.2 860.7 1409.6 865.8 1421.8 869.9 1430.7 872.5 1434.2 869L1443.6 859.6 1462.4 878.4Z" fill="#ffffff" opacity="1" stroke-width="4" stroke="none"></path></g><g><path d="M305.1 135.27L414.8 214.97C415.2 214.57 415.4 213.57 415.2 212.77L377.8 87.37 307.1 121.17C306.3 121.47 304.5 134.67 305.1 135.27Z" fill="#ffa0dc" opacity="1" stroke-width="4" stroke="none"></path><path d="M414.5 215.07L299 157.57C298.7 157.37 298.5 157.07 298.6 156.67L306.5 121.67C306.6 121.07 307.3 120.87 307.8 121.27L414.9 214.57C415.1 214.87 414.8 215.27 414.5 215.07Z" fill="#231f20" opacity="1" stroke-width="4" stroke="none"></path></g><g><path d="M211.17 278.91H474.26C508.28 278.91 513.77 299.19 513.77 333.36L536.03 566.86V603.77C536.03 637.78 508.43 665.54 474.26 665.54H211.17C177.16 665.54 149.4 637.94 149.4 603.77V566.86L187.23 341.75C187.23 307.58 177.01 278.91 211.17 278.91Z" fill="#231f20" opacity="1" stroke-width="4" stroke="none"></path><path d="M211.17 242H474.26C508.28 242 536.03 269.61 536.03 303.77V566.86C536.03 600.87 508.43 628.63 474.26 628.63H211.17C177.16 628.63 149.4 601.03 149.4 566.86V303.62C149.4 269.61 177.01 242 211.17 242Z" fill="#ffc930" opacity="1" stroke-width="4" stroke="none"></path></g><g><path d="M293.11 400.34L250.21 281.7C249.33 279.19 250.59 276.42 253.1 275.54 254.99 274.91 257.13 275.41 258.39 276.92L339.41 372.41 293.11 400.34Z" fill="#ffffff" opacity="1" stroke-width="4" stroke="none"></path><path d="M475.91 453.18C447.22 386.75 387.59 323.6 362.3 298.56 359.41 295.79 354.88 295.79 352.11 298.69 350.86 299.95 350.1 301.71 349.98 303.59L348.72 348.13 223.41 428.65C203.66 441.35 197.37 467.27 209.07 487.65L209.7 488.66C222.16 510.55 249.96 518.09 271.85 505.64 272.6 505.26 273.36 504.76 274.11 504.26 283.68 498.09 291.1 493.31 291.1 493.31 300.79 501.87 325.44 509.79 339.91 505.01L319.91 574.08C318.15 580.37 321.67 586.91 327.83 588.8 410.49 615.59 514.78 543.13 475.91 453.18Z" fill="#ff4f32" opacity="1" stroke-width="4" stroke="none"></path><path d="M335.76 411.54C339.23 411.54 342.05 408.72 342.05 405.25 342.05 401.77 339.23 398.96 335.76 398.96 332.29 398.96 329.47 401.77 329.47 405.25 329.47 408.72 332.29 411.54 335.76 411.54Z" fill="#231f20" opacity="1" stroke-width="4" stroke="none"></path><path d="M339.91 505.01C357.9 500.23 367.46 483.75 367.46 483.75" stroke="#100200" stroke-width="4" stroke-linecap="round" stroke-linejoin="round" opacity="1" fill="none"></path><path d="M348.72 348.13L347.08 366.12" stroke="#100200" stroke-width="4" stroke-linecap="round" stroke-linejoin="round" opacity="1" fill="none"></path><path d="M225.93 505.26L260.65 484.5" stroke="#100200" stroke-width="4" stroke-linecap="round" stroke-linejoin="round" opacity="1" fill="none"></path><path d="M226.06 454.94L222.28 467.9C221.4 471.17 223.16 474.44 226.43 475.45 227.06 475.7 227.82 475.7 228.45 475.7H228.95C232.35 475.45 234.86 472.68 234.61 469.28 234.61 468.65 234.36 467.9 234.11 467.27L228.82 454.81C228.45 454.06 227.57 453.68 226.81 454.06 226.43 454.18 226.18 454.56 226.06 454.94Z" fill="#331e1a" opacity="1" stroke-width="4" stroke="none"></path><path d="M282.04 369.64L305.94 333.03" stroke="#6a6a6a" stroke-width="4" stroke-linecap="round" stroke-linejoin="round" opacity="1" fill="none"></path><path d="M270.34 337.31L287.45 311.27" stroke="#6a6a6a" stroke-width="4" stroke-linecap="round" stroke-linejoin="round" opacity="1" fill="none"></path><path d="M259.39 306.99L269.96 290.64" stroke="#6a6a6a" stroke-width="4" stroke-linecap="round" stroke-linejoin="round" opacity="1" fill="none"></path></g><g><path d="M409.34 428.44H653.37C673.4 428.44 689.69 444.72 689.69 464.76V708.79C689.69 728.82 673.4 745.11 653.37 745.11H409.34C389.3 745.11 373.02 728.82 373.02 708.79V464.76C373.02 444.72 389.3 428.44 409.34 428.44Z" fill="#231f20" opacity="1" stroke-width="4" stroke="none"></path></g><g><path d="M408.97 430.18H659.31C678.66 430.18 694.37 445.9 694.37 465.25V709.37C694.37 728.72 678.66 744.44 659.31 744.44H408.97C389.62 744.44 373.91 728.72 373.91 709.37V465.25C373.91 445.9 389.62 430.18 408.97 430.18Z" fill="#231f20" opacity="1" stroke-width="4" stroke="none"></path><path d="M423.53 430.18L481.94 496.76 497.56 430.18" stroke="#ffffff" stroke-width="4" stroke-linecap="round" stroke-linejoin="round" opacity="1" fill="none"></path><path d="M402.93 546.47L481.94 496.76 525.44 568.67 402.93 546.47Z" stroke="#ffffff" stroke-width="4" stroke-linecap="round" stroke-linejoin="round" opacity="1" fill="none"></path><path d="M534.14 430.18L552.96 471.91 525.44 568.67 663.04 619.27 694.37 568.67" stroke="#ffffff" stroke-width="4" stroke-linecap="round" stroke-linejoin="round" opacity="1" fill="none"></path><path d="M603.56 430.18L552.96 471.91 694.37 465.25" stroke="#ffffff" stroke-width="4" stroke-linecap="round" stroke-linejoin="round" opacity="1" fill="none"></path><path d="M525.44 568.67L455.31 699.16 576.04 668.09 525.44 568.67Z" stroke="#ffffff" stroke-width="4" stroke-linecap="round" stroke-linejoin="round" opacity="1" fill="none"></path><path d="M373.64 490.55L402.93 546.47 373.91 568.67" stroke="#ffffff" stroke-width="4" stroke-linecap="round" stroke-linejoin="round" opacity="1" fill="none"></path><path d="M373.64 630.45L455.31 699.16 418.02 744.44" stroke="#ffffff" stroke-width="4" stroke-linecap="round" stroke-linejoin="round" opacity="1" fill="none"></path><path d="M464.19 744.44L455.31 699.16" stroke="#ffffff" stroke-width="4" stroke-linecap="round" stroke-linejoin="round" opacity="1" fill="none"></path><path d="M561.57 744.44L576.04 668.09 663.04 619.27 694.37 656.55" stroke="#ffffff" stroke-width="4" stroke-linecap="round" stroke-linejoin="round" opacity="1" fill="none"></path><path d="M576.04 668.09L694.37 687.62" stroke="#ffffff" stroke-width="4" stroke-linecap="round" stroke-linejoin="round" opacity="1" fill="none"></path><path d="M525.44 580.21C531.81 580.21 536.98 575.04 536.98 568.67 536.98 562.29 531.81 557.13 525.44 557.13 519.07 557.13 513.9 562.29 513.9 568.67 513.9 575.04 519.07 580.21 525.44 580.21Z" fill="#ffffff" opacity="1" stroke-width="4" stroke="none"></path><path d="M455.31 710.7C461.68 710.7 466.85 705.54 466.85 699.16 466.85 692.79 461.68 687.62 455.31 687.62 448.94 687.62 443.77 692.79 443.77 699.16 443.77 705.54 448.94 710.7 455.31 710.7Z" fill="#ffffff" opacity="1" stroke-width="4" stroke="none"></path><path d="M663.04 630.81C669.41 630.81 674.58 625.64 674.58 619.27 674.58 612.89 669.41 607.73 663.04 607.73 656.66 607.73 651.5 612.89 651.5 619.27 651.5 625.64 656.66 630.81 663.04 630.81Z" fill="#ffffff" opacity="1" stroke-width="4" stroke="none"></path><path d="M552.96 483.45C559.33 483.45 564.5 478.28 564.5 471.91 564.5 465.53 559.33 460.37 552.96 460.37 546.58 460.37 541.42 465.53 541.42 471.91 541.42 478.28 546.58 483.45 552.96 483.45Z" fill="#ffffff" opacity="1" stroke-width="4" stroke="none"></path><path d="M481.94 508.3C488.31 508.3 493.48 503.14 493.48 496.76 493.48 490.39 488.31 485.22 481.94 485.22 475.57 485.22 470.4 490.39 470.4 496.76 470.4 503.14 475.57 508.3 481.94 508.3Z" fill="#ffffff" opacity="1" stroke-width="4" stroke="none"></path><path d="M402.93 558.02C409.31 558.02 414.47 552.85 414.47 546.47 414.47 540.1 409.31 534.93 402.93 534.93 396.56 534.93 391.39 540.1 391.39 546.47 391.39 552.85 396.56 558.02 402.93 558.02Z" fill="#ffffff" opacity="1" stroke-width="4" stroke="none"></path><path d="M576.04 679.63C582.41 679.63 587.58 674.47 587.58 668.09 587.58 661.72 582.41 656.55 576.04 656.55 569.67 656.55 564.5 661.72 564.5 668.09 564.5 674.47 569.67 679.63 576.04 679.63Z" fill="#ffffff" opacity="1" stroke-width="4" stroke="none"></path></g><g><path d="M689.74 331.02V330.72C687.24 317.52 695.44 307.72 693.64 297.82L700.14 279.92 697.84 272.02C695.34 258.52 687.54 257.52 702.14 244.52 711.54 236.22 714.64 235.42 728.74 235.42 736.14 235.42 736.14 230.42 742.94 233.12 751.74 236.52 761.04 229.42 765.24 236.32 769.44 243.22 772.24 251.72 775.74 262.12L776.04 262.92 776.74 264.82C779.94 265.22 785.24 266.32 785.94 269.22 786.84 272.82 782.64 278.32 781.74 279.32 787.54 297.82 787.34 307.92 781.24 316.52 777.34 321.92 769.44 325.12 760.24 325.12 756.74 325.22 753.24 324.62 749.94 323.42L751.04 330.22 749.84 332.82 719.34 331.12 689.74 331.02Z" fill="#c65a42" opacity="1" stroke-width="4" stroke="none"></path><path d="M766.34 287.62C767.94 291.02 772.94 291.42 775.44 290.52" stroke="#222020" stroke-width="4" stroke-linecap="round" stroke-linejoin="round" opacity="1" fill="none"></path><path d="M765.04 265.12C766.54 265.12 767.64 266.32 767.64 267.72 767.64 269.12 766.44 270.32 765.04 270.32 763.54 270.32 762.44 269.12 762.44 267.72 762.34 266.32 763.54 265.12 765.04 265.12Z" fill="#231f20" opacity="1" stroke-width="4" stroke="none"></path><path d="M741.24 319.12C741.24 319.12 745.84 321.72 749.94 323.52" stroke="#222020" stroke-width="4" stroke-linecap="round" stroke-linejoin="round" opacity="1" fill="none"></path><path d="M721.34 285.72L729.74 290.72" stroke="#222020" stroke-width="4" stroke-linecap="round" stroke-linejoin="round" opacity="1" fill="none"></path><path d="M867.74 379.12L873.94 361.72C881.84 353.42 890.74 344.82 902.74 334.62 923.84 316.62 943.44 308.62 953.54 308.62 957.14 308.62 959.74 309.62 960.94 311.52 961.04 311.52 961.24 311.52 961.44 311.52 963.34 311.52 968.04 311.82 970.04 315.02 971.44 317.32 971.14 320.52 969.14 324.62 970.14 325.32 975.64 329.62 971.04 338.82 969.74 341.32 963.54 347.42 952.44 356.82 955.34 355.22 961.44 352.42 965.64 352.42 966.94 352.32 968.24 352.82 969.14 353.72 970.04 354.92 970.34 356.32 970.04 357.82 969.54 362.42 960.24 369.72 948.54 378.82 937.24 387.62 928.64 394.72 920.24 405.02L898.04 411.42 867.74 379.12Z" fill="#c65a42" opacity="1" stroke-width="4" stroke="none"></path><path d="M733.74 331.72L732.54 320.62C732.44 319.92 732.64 319.22 733.14 318.62 733.64 318.12 734.54 317.22 735.24 317.02 736.24 316.72 738.14 317.32 738.54 317.52 742.84 319.82 745.24 322.22 749.94 323.52L751.14 331.12 733.74 331.52V331.72Z" fill="#222020" opacity="0.3" stroke-width="4" stroke="none"></path><path d="M659.84 531.02C629.74 511.22 612.14 492.12 617.54 457.62 620.04 441.12 626.44 419.22 635.14 397.52 644.04 374.72 653.34 362.12 656.84 357.72 669.64 342.02 687.84 339.02 690.74 338.72 690.44 337.22 689.34 329.92 689.24 329.62V329.42L751.04 330.32 753.74 341.02H753.94C764.14 341.82 800.24 348.32 837.04 397.82 839.14 395.82 860.64 375.02 873.84 361.82L873.94 361.72 920.24 405.02 920.14 405.12C918.74 406.92 917.24 408.72 915.84 410.62 896.74 435.02 870.64 468.32 838.04 470.62 837.34 470.62 836.64 470.72 835.94 470.72 824.74 470.72 812.84 464.62 804.74 459.42 799.54 456.12 794.64 452.42 790.04 448.32L777.04 507.12H674.04C673.54 507.92 669.34 514.42 660.14 531.02L660.04 531.22 659.84 531.02Z" fill="#61ccff" opacity="1" stroke-width="4" stroke="none"></path><path d="M659.54 530.82C651.44 525.42 643.84 520.02 636.64 513.22L636.44 513.02 636.64 512.92C642.94 508.92 648.14 503.42 651.74 496.82 654.94 490.92 656.14 481.82 657.24 473.82 658.64 463.02 659.94 453.72 665.44 453.72 665.64 453.72 665.74 453.72 665.94 453.72L667.04 453.92 675.54 499.12 676.04 500.32C675.94 500.42 666.24 511.72 659.94 531.02L659.74 531.12 659.54 530.82Z" fill="#2a4552" opacity="0.3" stroke-width="4" stroke="none"></path><path d="M683.04 345.22C679.44 345.12 675.94 344.02 672.84 342.02 669.14 339.92 666.54 336.42 665.64 332.22 663.84 324.12 668.84 315.32 669.74 313.92 664.84 311.42 659.34 306.22 660.84 295.82 662.74 282.72 678.54 281.62 680.64 281.62V281.42C678.14 267.92 673.54 242.82 688.14 229.82 697.54 221.52 711.04 216.72 725.14 216.72 732.54 216.72 739.84 218.02 746.64 220.72 754.44 223.62 761.04 229.12 765.24 236.32V236.42 236.52C765.24 236.62 763.14 251.22 748.44 251.22 748.04 251.22 747.64 251.22 747.8 251.26 749.24 261.52 747.54 269.02 745.64 273.62 744.64 276.42 743.04 278.92 741.14 281.22L741.04 281.32 740.94 281.22C740.84 281.12 728.24 270.32 717.84 270.32 714.04 270.22 710.34 272.02 708.24 275.22 698.44 288.92 722.24 307.92 722.24 307.92 722.24 307.92 726.24 322.52 720.04 330.52 717.24 334.12 712.94 336.02 707.14 336.02 704.84 336.02 702.54 335.72 700.24 335.32 699.24 336.12 692.74 345.22 683.04 345.22Z" fill="#231f20" opacity="1" stroke-width="4" stroke="none"></path><path d="M790.04 448.32L770.94 431.82" stroke="#2a4552" stroke-width="4" stroke-linecap="round" stroke-linejoin="round" opacity="1" fill="none"></path><path d="M837.04 397.82L838.84 416.32" stroke="#2a4552" stroke-width="4" stroke-linecap="round" stroke-linejoin="round" opacity="1" fill="none"></path><path d="M960.94 311.52C947.94 317.52 924.94 333.82 916.94 340.82" stroke="#222020" stroke-width="4" stroke-linecap="round" stroke-linejoin="round" opacity="1" fill="none"></path><path d="M969.14 324.62C951.14 333.62 927.94 352.82 927.94 352.82" stroke="#222020" stroke-width="4" stroke-linecap="round" stroke-linejoin="round" opacity="1" fill="none"></path><path d="M952.44 356.82L938.94 366.22" stroke="#222020" stroke-width="4" stroke-linecap="round" stroke-linejoin="round" opacity="1" fill="none"></path><path d="M751.64 507.62L760.74 439.82C761.24 435.72 764.74 432.72 768.84 432.72 770.74 432.72 772.64 433.42 774.04 434.72L790.04 448.32 776.94 507.62H751.64Z" fill="#2a4552" opacity="0.3" stroke-width="4" stroke="none"></path><path d="M608.14 834.92L607.74 834.62C613.04 812.42 619.44 792.82 625.64 773.62 630.84 757.62 635.64 742.52 639.74 726.82 646.14 701.92 646.44 672.42 646.74 641.22 647.24 590.22 647.74 537.42 675.74 500.52L675.84 500.42 778.44 500.62C778.84 500.82 807.84 514.22 841.14 533.32 896.84 565.22 920.34 588.12 930.14 601.72 939.24 614.22 943.64 630.62 943.34 650.42 943.04 663.12 941.04 675.62 937.34 687.72 930.74 708.22 926.14 722.42 922.34 733.82L921.94 735.52 919.14 738.42 826.04 736.72 825.64 735.52C830.64 715.12 837.24 695.12 843.44 675.52 845.74 668.42 847.84 661.62 849.94 654.92 842.34 651.92 832.04 648.72 820.24 644.92 798.34 637.92 771.04 629.32 750.24 618.72 744.54 667.82 737.84 706.22 730.34 732.82 721.34 764.72 710.94 798.82 699.44 834.62L698.54 835.62 608.54 835.12 608.14 834.92Z" fill="#ffc930" opacity="1" stroke-width="4" stroke="none"></path><path d="M825.64 736.22L825.54 735.52C830.54 715.12 837.14 695.12 843.34 675.52 845.64 668.32 847.84 661.62 849.84 654.92L880.54 643.22C885.04 644.72 874.14 666.82 872.64 671.32 872.44 671.82 872.24 672.32 871.94 672.82 860.64 693.12 851.04 714.22 843.14 736.02V736.12L826.84 736.72 825.64 736.22Z" fill="#24221c" opacity="0.3" stroke-width="4" stroke="none"></path><path d="M670.64 835.02L670.74 834.72C670.84 834.52 678.44 813.12 697.74 746.72 706.54 716.42 707.44 676.92 708.24 645.32 708.54 631.72 708.84 620.02 709.64 611.02 710.14 605.62 714.74 599.72 720.14 600.22 721.84 600.42 723.74 601.62 725.14 602.52 732.54 609.62 750.04 618.72 750.04 618.72 745.54 657.62 740.24 689.82 734.54 714.82 733.04 721.32 731.54 727.32 730.04 732.82 721.04 764.72 710.74 798.82 699.24 834.62L698.64 835.22 670.54 834.92 670.64 835.02Z" fill="#24221c" opacity="0.3" stroke-width="4" stroke="none"></path><path d="M675.84 500.42L662.94 431.82" stroke="#2a4552" stroke-width="4" stroke-linecap="round" stroke-linejoin="round" opacity="1" fill="none"></path><path d="M644.84 437.32L662.74 431.82" stroke="#2a4552" stroke-width="4" stroke-linecap="round" stroke-linejoin="round" opacity="1" fill="none"></path><path d="M675.84 500.42L778.44 500.62" stroke="#2a4552" stroke-width="4" stroke-linecap="round" stroke-linejoin="round" opacity="1" fill="none"></path><path d="M750.14 618.72C722.64 604.72 708.94 587.82 704.94 576.82" stroke="#24221c" stroke-width="4" stroke-linecap="round" stroke-linejoin="round" opacity="1" fill="none"></path><path d="M849.84 654.92L881.94 642.82" stroke="#24221c" stroke-width="4" stroke-linecap="round" stroke-linejoin="round" opacity="1" fill="none"></path><path d="M596.14 952.02L595.24 950.62C594.54 909.62 598.44 873.02 607.64 834.92L607.74 834.62H699.34L699.24 834.92C695.34 847.12 691.14 859.62 687.04 871.92 676.24 904.22 685.14 919.12 702.94 932.72 710.34 938.32 715.74 944.22 719.14 950.62V951.32L596.14 952.02Z" fill="#ffffff" opacity="1" stroke-width="4" stroke="none"></path><path d="M595.84 970.02V969.82C595.54 963.52 595.34 957.12 595.24 950.82V950.62H719.14L719.24 950.72C724.94 961.62 722.54 969.92 722.54 969.92L595.84 970.02Z" fill="#353535" opacity="1" stroke-width="4" stroke="none"></path><path d="M813.84 871.02V870.82C813.54 864.52 813.34 858.32 813.24 852.02L814.04 851.32 936.94 851.62 937.54 852.02C943.24 862.92 940.74 870.92 940.74 870.92L813.84 871.02Z" fill="#353535" opacity="1" stroke-width="4" stroke="none"></path><path d="M813.24 852.02L813.14 848.62C812.34 806.62 816.34 772.92 825.54 735.72V735.77H921.94L919.39 746.51C916.54 755.98 913.84 759.72 910.14 771.82 905.24 788.02 900.04 817.62 921.04 833.62 928.44 839.22 933.94 845.32 937.34 851.72L937.44 852.02H813.24Z" fill="#ffffff" opacity="1" stroke-width="4" stroke="none"></path><path d="M682.14 888.52L660.94 888.82" stroke="#353535" stroke-width="4" stroke-linecap="round" stroke-linejoin="round" opacity="1" fill="none"></path><path d="M682.14 904.22L663.24 908.82" stroke="#353535" stroke-width="4" stroke-linecap="round" stroke-linejoin="round" opacity="1" fill="none"></path><path d="M687.94 917.52L671.54 926.12" stroke="#353535" stroke-width="4" stroke-linecap="round" stroke-linejoin="round" opacity="1" fill="none"></path><path d="M649.94 834.82C635.54 879.82 634.14 950.82 634.14 950.65" stroke="#353535" stroke-width="4" stroke-linecap="round" stroke-linejoin="round" opacity="1" fill="none"></path><path d="M699.34 834.62H607.74" stroke="#353535" stroke-width="4" stroke-linecap="round" stroke-linejoin="round" opacity="1" fill="none"></path><path d="M906.14 789.52L886.94 789.82" stroke="#353535" stroke-width="4" stroke-linecap="round" stroke-linejoin="round" opacity="1" fill="none"></path><path d="M906.14 805.22L887.24 809.82" stroke="#353535" stroke-width="4" stroke-linecap="round" stroke-linejoin="round" opacity="1" fill="none"></path><path d="M909.94 819.52L893.54 828.12" stroke="#353535" stroke-width="4" stroke-linecap="round" stroke-linejoin="round" opacity="1" fill="none"></path><path d="M872.14 735.52C860.84 771.52 852.94 829.82 852.44 851.82" stroke="#353535" stroke-width="4" stroke-linecap="round" stroke-linejoin="round" opacity="1" fill="none"></path><path d="M825.54 735.52H921.94" stroke="#353535" stroke-width="4" stroke-linecap="round" stroke-linejoin="round" opacity="1" fill="none"></path></g><g><path d="M191.6 766.6L207.2 846.7C208 846.9 208.5 846.9 209.1 846.9L375.8 828.6C377 828.5 377.2 826.7 376 826.3L194.7 765.9C193.5 765.5 191.9 765.2 191.6 766.6Z" fill="#ff4f32" opacity="1" stroke-width="4" stroke="none"></path><path d="M191.7 766.4L175 836 207.2 846.7C207.6 846.8 207.9 846.5 207.9 846.1L192.3 766.4C192.2 766.1 191.7 766.1 191.7 766.4Z" fill="#231f20" opacity="1" stroke-width="4" stroke="none"></path></g><g><path d="M297.9 890L355 998C355.9 998.7 358.1 998.7 358.6 997.9L475.5 821.1C475.8 820.6 475.3 820 474.8 820.2L299.3 886.2C298.5 886.4 296.8 888.2 297.9 890Z" fill="#ffa0dc" opacity="1" stroke-width="4" stroke="none"></path><path d="M298.7 888.4L356.1 997C356.5 997.7 355.7 998.5 355 998L286.5 954.3 297.5 888.6C297.6 888 298.4 887.8 298.7 888.4Z" fill="#231f20" opacity="1" stroke-width="4" stroke="none"></path></g><g><path d="M1364.92 606.73L1220.88 581.58 1277.51 716.12 1292.36 678.7 1335.62 713.25 1374.92 664.05 1331.66 629.5 1364.92 606.73Z" fill="#231f20" opacity="1" stroke-width="4" stroke="none"></path></g></svg>